<?xml version="1.0" encoding="UTF-8" standalone="no"?>
<!DOCTYPE svg PUBLIC "-//W3C//DTD SVG 1.1//EN" "http://www.w3.org/Graphics/SVG/1.1/DTD/svg11.dtd">
<svg xmlns="http://www.w3.org/2000/svg" xmlns:xl="http://www.w3.org/1999/xlink" xmlns:dc="http://purl.org/dc/elements/1.1/" version="1.1" viewBox="0 -816 2442 3712" width="2442" height="3712">
  <defs>
    <clipPath id="inner_stroke_clip_path">
      <path d="M 45.51543 2448 L 2397.5154 2448 L 2397.5154 2798 L 45.51543 2798 Z"/>
    </clipPath>
    <radialGradient cx="0" cy="0" r="1" id="Gradient" gradientUnits="userSpaceOnUse">
      <stop offset="0" stop-color="#333"/>
      <stop offset=".9277644" stop-color="#181818"/>
      <stop offset="1" stop-color="black"/>
    </radialGradient>
    <radialGradient id="Obj_Gradient" xl:href="#Gradient" gradientTransform="translate(925.6625 -60.9308) scale(1938.2048)"/>
    <linearGradient x1="0" x2="1" id="Gradient_2" gradientUnits="userSpaceOnUse">
      <stop offset="0" stop-color="#76bdff"/>
      <stop offset="1" stop-color="#5070ff"/>
    </linearGradient>
    <linearGradient id="Obj_Gradient_2" xl:href="#Gradient_2" gradientTransform="translate(1780.6656 2582.85) rotate(90) scale(168.3)"/>
    <radialGradient cx="0" cy="0" r="1" id="Gradient_3" gradientUnits="userSpaceOnUse">
      <stop offset="0" stop-color="#ff2600"/>
      <stop offset="1" stop-color="#76bdff"/>
    </radialGradient>
    <radialGradient id="Obj_Gradient_3" xl:href="#Gradient_3" gradientTransform="translate(2179.65 2667) scale(119.00607)"/>
    <radialGradient id="Obj_Gradient_4" xl:href="#Gradient" gradientTransform="translate(788.728 -740.2107) scale(640.19966)"/>
  </defs>
  <g id="SIDE" stroke-opacity="1" fill="none" stroke-dasharray="none" stroke="none" fill-opacity="1">
    <title>SIDE</title>
    <g id="SIDE_Body">
      <title>Body</title>
      <g id="Graphic_3">
        <rect x="0" y="0" width="2439" height="2896" fill="#a5a5a5"/>
      </g>
      <g id="Graphic_2">
        <rect x="45.5154" y="98" width="2352" height="2700" fill="white"/>
      </g>
      <g id="Graphic_5">
        <rect x="45.51543" y="2448" width="2352" height="350" fill="white"/>
        <rect x="45.51543" y="2448" width="2352" height="350" stroke="gray" stroke-linecap="round" stroke-linejoin="round" stroke-width="16" clip-path="url(#inner_stroke_clip_path)"/>
      </g>
      <g id="Graphic_6">
        <path d="M 250.5154 148 L 1440.5154 148 C 1443.2768 148 1445.5154 150.23858 1445.5154 153 L 1445.5154 2443 C 1445.5154 2445.7614 1443.2768 2448 1440.5154 2448 L 250.5154 2448 C 247.75397 2448 245.5154 2445.7614 245.5154 2443 L 245.5154 153 C 245.5154 150.23858 247.75397 148 250.5154 148 Z" fill="url(#Obj_Gradient)"/>
        <text transform="translate(250.5154 1250.38)" fill="white">
          <tspan font-family="Helvetica Neue" font-size="80" fill="white" x="413.48" y="76" xml:space="preserve">DLC Rack</tspan>
        </text>
      </g>
      <g id="Graphic_7">
        <circle cx="1780.6656" cy="2667" r="84.1501359893259" fill="url(#Obj_Gradient_2)"/>
        <circle cx="1780.6656" cy="2667" r="84.1501359893259" stroke="#a5a5a5" stroke-linecap="round" stroke-linejoin="round" stroke-width="4"/>
      </g>
      <g id="Graphic_8">
        <circle cx="2179.65" cy="2667" r="84.1501359893258" fill="url(#Obj_Gradient_3)"/>
        <circle cx="2179.65" cy="2667" r="84.1501359893258" stroke="#a5a5a5" stroke-linecap="round" stroke-linejoin="round" stroke-width="4"/>
      </g>
    </g>
    <g id="SIDE_Addon">
      <title>Addon</title>
      <g id="Group_15">
        <g id="Graphic_17">
          <rect x="2.0154327" y="-814.6407" width="2439" height="814.6407" fill="#a5a5a5"/>
          <rect x="2.0154327" y="-814.6407" width="2439" height="814.6407" stroke="#003776" stroke-linecap="round" stroke-linejoin="round" stroke-width="1"/>
        </g>
        <g id="Graphic_16">
          <rect x="16.241154" y="-732.32034" width="2410.5486" height="650" fill="white"/>
          <rect x="16.241154" y="-732.32034" width="2410.5486" height="650" stroke="#003776" stroke-linecap="round" stroke-linejoin="round" stroke-width="1"/>
        </g>
      </g>
      <g id="Group_18">
        <g id="Graphic_20">
          <rect x="2051.4206" y="-587.36724" width="187.97468" height="132" id="path"/>
          <clipPath id="clip_path">
            <use xl:href="#path"/>
          </clipPath>
          <g clip-path="url(#clip_path)">
            <image xl:href="image3.pdf" width="158" height="225" transform="translate(2239.3953 -587.36724) rotate(90) scale(.835443)"/>
          </g>
        </g>
        <g id="Graphic_19">
          <rect x="1752.8" y="-614.12816" width="392.90476" height="223" id="path_2"/>
          <clipPath id="clip_path_2">
            <use xl:href="#path_2"/>
          </clipPath>
          <g clip-path="url(#clip_path_2)">
            <image xl:href="image4.pdf" width="168" height="296" transform="translate(2145.7048 -614.12816) rotate(90) scale(1.327381)"/>
          </g>
        </g>
      </g>
      <g id="Graphic_21">
        <path d="M 340.29665 -685.707 L 1130.2966 -685.707 C 1133.0581 -685.707 1135.2966 -683.46845 1135.2966 -680.707 L 1135.2966 -90.70703 C 1135.2966 -87.94561 1133.0581 -85.70703 1130.2966 -85.70703 L 340.29665 -85.70703 C 337.53522 -85.70703 335.29665 -87.94561 335.29665 -90.70703 L 335.29665 -680.707 C 335.29665 -683.46845 337.53522 -685.707 340.29665 -685.707 Z" fill="url(#Obj_Gradient_4)"/>
        <text transform="translate(340.29665 -433.32703)" fill="white">
          <tspan font-family="Helvetica Neue" font-size="80" fill="white" x="314.28" y="76" xml:space="preserve">FCU</tspan>
        </text>
      </g>
    </g>
  </g>
</svg>
